<svg width="128" height="32" viewBox="0 0 128 32" fill="none" xmlns="http://www.w3.org/2000/svg">
<path d="M16 5.33331C17.4145 5.33331 18.7711 5.89522 19.7713 6.89541C20.7715 7.8956 21.3334 9.25216 21.3334 10.6666C21.3334 12.0811 20.7715 13.4377 19.7713 14.4379C18.7711 15.4381 17.4145 16 16 16C14.5856 16 13.229 15.4381 12.2288 14.4379C11.2286 13.4377 10.6667 12.0811 10.6667 10.6666C10.6667 9.25216 11.2286 7.8956 12.2288 6.89541C13.229 5.89522 14.5856 5.33331 16 5.33331ZM16 7.99998C15.2928 7.99998 14.6145 8.28093 14.1144 8.78103C13.6143 9.28113 13.3334 9.9594 13.3334 10.6666C13.3334 11.3739 13.6143 12.0522 14.1144 12.5523C14.6145 13.0524 15.2928 13.3333 16 13.3333C16.7073 13.3333 17.3856 13.0524 17.8857 12.5523C18.3858 12.0522 18.6667 11.3739 18.6667 10.6666C18.6667 9.9594 18.3858 9.28113 17.8857 8.78103C17.3856 8.28093 16.7073 7.99998 16 7.99998ZM16 17.3333C19.56 17.3333 26.6667 19.1066 26.6667 22.6666V26.6666H5.33337V22.6666C5.33337 19.1066 12.44 17.3333 16 17.3333ZM16 19.8666C12.04 19.8666 7.86671 21.8133 7.86671 22.6666V24.1333H24.1334V22.6666C24.1334 21.8133 19.96 19.8666 16 19.8666Z" fill="white"/>
<path d="M73.3334 9.33335H69.3334V8.00002C69.3334 6.58553 68.7715 5.22898 67.7713 4.22878C66.7711 3.22859 65.4145 2.66669 64 2.66669C62.5856 2.66669 61.229 3.22859 60.2288 4.22878C59.2286 5.22898 58.6667 6.58553 58.6667 8.00002V9.33335H54.6667C54.3131 9.33335 53.9739 9.47383 53.7239 9.72388C53.4739 9.97393 53.3334 10.3131 53.3334 10.6667V25.3334C53.3334 26.3942 53.7548 27.4116 54.5049 28.1618C55.2551 28.9119 56.2725 29.3334 57.3334 29.3334H70.6667C71.7276 29.3334 72.745 28.9119 73.4951 28.1618C74.2453 27.4116 74.6667 26.3942 74.6667 25.3334V10.6667C74.6667 10.3131 74.5262 9.97393 74.2762 9.72388C74.0261 9.47383 73.687 9.33335 73.3334 9.33335ZM61.3334 8.00002C61.3334 7.29278 61.6143 6.6145 62.1144 6.1144C62.6145 5.61431 63.2928 5.33335 64 5.33335C64.7073 5.33335 65.3856 5.61431 65.8857 6.1144C66.3858 6.6145 66.6667 7.29278 66.6667 8.00002V9.33335H61.3334V8.00002ZM72 25.3334C72 25.687 71.8596 26.0261 71.6095 26.2762C71.3595 26.5262 71.0203 26.6667 70.6667 26.6667H57.3334C56.9798 26.6667 56.6406 26.5262 56.3906 26.2762C56.1405 26.0261 56 25.687 56 25.3334V12H58.6667V13.3334C58.6667 13.687 58.8072 14.0261 59.0572 14.2762C59.3073 14.5262 59.6464 14.6667 60 14.6667C60.3537 14.6667 60.6928 14.5262 60.9428 14.2762C61.1929 14.0261 61.3334 13.687 61.3334 13.3334V12H66.6667V13.3334C66.6667 13.687 66.8072 14.0261 67.0572 14.2762C67.3073 14.5262 67.6464 14.6667 68 14.6667C68.3537 14.6667 68.6928 14.5262 68.9429 14.2762C69.1929 14.0261 69.3334 13.687 69.3334 13.3334V12H72V25.3334Z" fill="white"/>
<path d="M122.667 2.66669C123.374 2.66669 124.052 2.94764 124.552 3.44774C125.052 3.94783 125.333 4.62611 125.333 5.33335V21.3334C125.333 22.0406 125.052 22.7189 124.552 23.219C124.052 23.7191 123.374 24 122.667 24H104L98.6666 29.3334V5.33335C98.6666 4.62611 98.9476 3.94783 99.4477 3.44774C99.9478 2.94764 100.626 2.66669 101.333 2.66669H122.667ZM101.333 5.33335V22.8934L102.893 21.3334H122.667V5.33335H101.333ZM104 9.33335H120V12H104V9.33335ZM104 14.6667H116V17.3334H104V14.6667Z" fill="white"/>
</svg>
